<svg width="1122" height="334" viewBox="0 0 1122 334" fill="none" xmlns="http://www.w3.org/2000/svg">
<rect y="38.8174" width="1112.26" height="294.373" transform="rotate(-2 0 38.8174)" fill="#1F2937"/>
<g clip-path="url(#clip0_1_409)">
<path fill-rule="evenodd" clip-rule="evenodd" d="M86.4388 83.6138C91.0978 83.0388 95.7448 82.4538 100.25 81.6199C102.494 81.2009 104.722 80.7128 106.726 80.0518C107.222 79.8878 107.708 79.7118 108.14 79.5198C108.36 79.4318 108.624 79.2948 108.573 79.3288L108.708 79.2588C108.879 79.1688 109.073 78.9788 109.006 78.7568C108.986 78.6128 108.896 78.4938 108.799 78.3838C108.779 78.3575 108.755 78.3343 108.728 78.3148L108.578 78.1978C108.373 78.0338 108.07 77.8858 107.824 77.7238C106.717 77.1098 105.388 76.5708 104.002 76.1068C101.211 75.1838 98.2078 74.4818 95.1918 73.8108C89.6448 72.6298 83.9708 71.6008 78.3158 69.9998C75.4078 69.1048 72.4868 68.0948 69.6648 66.5598C68.2728 65.7878 66.8188 64.9868 65.4958 63.8288C64.1918 62.7028 62.9028 61.1088 62.4858 59.0508C62.1898 57.4628 62.6808 56.1948 63.1258 55.2208C63.6038 54.2198 64.1768 53.3938 64.7738 52.6178C65.9668 51.0628 67.2778 49.7388 68.6138 48.4578C71.2938 45.9168 72.4208 49.8528 70.2938 51.9958C69.2398 53.0658 68.2238 54.1838 67.4168 55.3398C66.6048 56.4298 66.0328 57.8558 66.1888 58.2298C66.5028 59.4758 67.6038 60.7048 69.1158 61.6678C70.5958 62.6938 72.4758 63.2318 74.2958 63.8558C78.0118 64.9718 81.9198 65.8328 85.8398 66.6558C90.5988 67.6128 95.4138 68.5578 100.266 69.7468C102.694 70.3568 105.13 71.0188 107.584 71.9968C108.875 72.4947 110.113 73.1237 111.276 73.8738L112.363 74.7198C112.73 75.0428 112.999 75.4448 113.322 75.8038C113.677 76.1488 113.835 76.5938 114.047 77.0108C114.282 77.4188 114.398 77.8808 114.535 78.3298C114.636 78.888 114.629 79.4603 114.515 80.0159C114.355 80.5588 114.147 81.0908 113.799 81.5418C113.154 82.4798 112.151 83.1598 111.11 83.7418C110.123 84.2518 109.487 84.4748 108.672 84.7719C107.915 85.0326 107.15 85.2671 106.377 85.4748C103.333 86.2919 100.323 86.8148 97.3148 87.2929C87.6048 88.8259 77.8828 89.5429 68.3598 91.0248C66.5648 91.3258 64.7778 91.6549 63.0318 92.0598C62.1578 92.2618 61.3018 92.4898 60.4638 92.7439C60.0478 92.8739 59.6388 93.0108 59.2428 93.1609L58.6658 93.3928C58.4888 93.4628 58.4228 93.5048 58.2958 93.5628C57.8668 93.7828 57.3878 94.0629 57.2128 94.5508C57.0368 95.0759 57.4678 95.5018 57.7098 95.9238C57.7978 96.1148 58.0848 96.3889 58.3638 96.7089C58.6528 97.0009 58.8738 97.3469 59.2238 97.5928C59.8608 98.1298 60.4938 98.6768 61.2458 99.1038C64.1398 100.944 67.5938 102.059 71.0808 102.889C74.5828 103.717 78.1738 104.269 81.7768 104.705C92.9948 106.094 104.189 106.197 115.501 108.412C117.989 108.899 120.436 109.485 122.917 110.347C127.513 111.974 130.36 113.977 131.987 115.727C132.388 116.177 132.732 116.59 133.023 116.975C133.288 117.388 133.483 117.794 133.65 118.156C133.985 118.885 134.131 119.523 134.11 120.162C134.113 120.73 134.178 121.392 134.063 121.742C133.873 122.33 133.105 121.888 132.023 120.813C130.784 119.833 129.097 118.272 126.336 116.856C124.328 115.77 122.077 114.974 119.75 114.33C117.438 113.654 115 113.194 112.55 112.757C107.617 111.944 102.52 111.427 97.3398 110.959C92.1558 110.492 86.8868 110.068 81.5498 109.436C76.2098 108.751 70.7938 107.992 65.3248 106.184C63.3008 105.524 61.2648 104.662 59.2818 103.506L57.8118 102.569C57.3268 102.239 56.8658 101.824 56.3988 101.449C55.91 101.071 55.4625 100.642 55.0638 100.17L54.4308 99.4698L54.0748 99.0648C53.9448 98.8549 53.8408 98.6449 53.7238 98.4328L52.3498 95.9098C52.0578 95.0598 52.0698 94.1218 52.3158 93.2449C52.5845 92.3742 53.0601 91.5816 53.7018 90.9348C54.3999 90.2708 55.1988 89.7217 56.0688 89.3078C56.2738 89.2068 56.5358 89.0569 56.6958 88.9958L57.1198 88.8168C57.4038 88.6928 57.6698 88.6018 57.9418 88.4998C58.4674 88.3101 58.9986 88.1367 59.5348 87.9799C60.5555 87.6819 61.5861 87.4191 62.6248 87.1918C70.7268 85.5499 78.5588 84.5279 86.4038 83.4869L86.4388 83.6129V83.6138Z" fill="#93C5FD"/>
</g>
<path d="M54.3809 179.004V144.095H69.5172C72.1763 144.095 74.4093 144.453 76.2161 145.169C78.0343 145.885 79.4036 146.896 80.324 148.203C81.2559 149.51 81.7218 151.049 81.7218 152.822C81.7218 154.106 81.4377 155.277 80.8695 156.333C80.3127 157.39 79.5286 158.277 78.5172 158.993C77.5059 159.697 76.324 160.186 74.9718 160.458V160.799C76.4718 160.856 77.8354 161.237 79.0627 161.941C80.29 162.635 81.2672 163.595 81.9945 164.822C82.7218 166.038 83.0854 167.47 83.0854 169.118C83.0854 171.027 82.5854 172.725 81.5854 174.214C80.5968 175.703 79.1877 176.873 77.3581 177.725C75.5286 178.578 73.3468 179.004 70.8127 179.004H54.3809ZM63.8581 171.436H68.29C69.8809 171.436 71.074 171.14 71.8695 170.549C72.665 169.947 73.0627 169.061 73.0627 167.89C73.0627 167.072 72.8752 166.379 72.5002 165.811C72.1252 165.243 71.5911 164.811 70.8979 164.515C70.2161 164.22 69.3922 164.072 68.4263 164.072H63.8581V171.436ZM63.8581 158.208H67.7445C68.574 158.208 69.307 158.078 69.9434 157.816C70.5797 157.555 71.074 157.18 71.4263 156.691C71.79 156.191 71.9718 155.583 71.9718 154.868C71.9718 153.788 71.5854 152.964 70.8127 152.396C70.04 151.816 69.0627 151.527 67.8809 151.527H63.8581V158.208ZM98.6452 179.481C95.8497 179.481 93.4406 178.947 91.4179 177.879C89.4065 176.799 87.8554 175.254 86.7645 173.243C85.685 171.22 85.1452 168.799 85.1452 165.981C85.1452 163.277 85.6906 160.913 86.7815 158.89C87.8725 156.868 89.4122 155.294 91.4009 154.169C93.3895 153.044 95.7361 152.481 98.4406 152.481C100.418 152.481 102.208 152.788 103.81 153.402C105.412 154.015 106.782 154.907 107.918 156.078C109.054 157.237 109.929 158.646 110.543 160.305C111.157 161.964 111.463 163.833 111.463 165.913V168.095H88.077V162.913H102.804C102.793 162.163 102.6 161.504 102.225 160.936C101.861 160.356 101.367 159.907 100.742 159.589C100.128 159.26 99.4293 159.095 98.6452 159.095C97.8838 159.095 97.185 159.26 96.5486 159.589C95.9122 159.907 95.4009 160.35 95.0145 160.919C94.6395 161.487 94.4406 162.152 94.4179 162.913V168.504C94.4179 169.345 94.594 170.095 94.9463 170.754C95.2986 171.413 95.8043 171.93 96.4634 172.305C97.1225 172.68 97.9179 172.868 98.8497 172.868C99.4975 172.868 100.088 172.777 100.622 172.595C101.168 172.413 101.634 172.152 102.02 171.811C102.407 171.458 102.691 171.038 102.872 170.549H111.463C111.168 172.368 110.469 173.947 109.367 175.288C108.264 176.618 106.804 177.652 104.986 178.39C103.179 179.118 101.066 179.481 98.6452 179.481ZM127.436 179.481C124.596 179.481 122.164 178.919 120.141 177.794C118.118 176.657 116.567 175.078 115.488 173.055C114.408 171.021 113.868 168.663 113.868 165.981C113.868 163.299 114.408 160.947 115.488 158.924C116.567 156.89 118.118 155.311 120.141 154.186C122.164 153.049 124.596 152.481 127.436 152.481C130.005 152.481 132.226 152.947 134.101 153.879C135.988 154.799 137.448 156.106 138.482 157.799C139.516 159.481 140.039 161.458 140.05 163.731H131.323C131.198 162.356 130.8 161.311 130.13 160.595C129.471 159.868 128.618 159.504 127.573 159.504C126.755 159.504 126.039 159.743 125.425 160.22C124.811 160.686 124.334 161.396 123.993 162.35C123.652 163.294 123.482 164.481 123.482 165.913C123.482 167.345 123.652 168.538 123.993 169.493C124.334 170.436 124.811 171.146 125.425 171.623C126.039 172.089 126.755 172.322 127.573 172.322C128.266 172.322 128.88 172.163 129.414 171.845C129.948 171.515 130.38 171.038 130.709 170.413C131.05 169.777 131.255 169.004 131.323 168.095H140.05C140.016 170.402 139.488 172.413 138.465 174.129C137.442 175.833 135.993 177.152 134.118 178.083C132.255 179.015 130.027 179.481 127.436 179.481ZM156.066 179.481C153.225 179.481 150.793 178.919 148.77 177.794C146.748 176.657 145.197 175.078 144.117 173.055C143.037 171.021 142.498 168.663 142.498 165.981C142.498 163.299 143.037 160.947 144.117 158.924C145.197 156.89 146.748 155.311 148.77 154.186C150.793 153.049 153.225 152.481 156.066 152.481C158.907 152.481 161.339 153.049 163.361 154.186C165.384 155.311 166.935 156.89 168.015 158.924C169.094 160.947 169.634 163.299 169.634 165.981C169.634 168.663 169.094 171.021 168.015 173.055C166.935 175.078 165.384 176.657 163.361 177.794C161.339 178.919 158.907 179.481 156.066 179.481ZM156.134 172.527C156.929 172.527 157.617 172.26 158.197 171.725C158.776 171.191 159.225 170.43 159.543 169.441C159.861 168.453 160.02 167.277 160.02 165.913C160.02 164.538 159.861 163.362 159.543 162.385C159.225 161.396 158.776 160.635 158.197 160.1C157.617 159.566 156.929 159.299 156.134 159.299C155.293 159.299 154.572 159.566 153.969 160.1C153.367 160.635 152.907 161.396 152.589 162.385C152.27 163.362 152.111 164.538 152.111 165.913C152.111 167.277 152.27 168.453 152.589 169.441C152.907 170.43 153.367 171.191 153.969 171.725C154.572 172.26 155.293 172.527 156.134 172.527ZM172.972 179.004V152.822H181.904V157.799H182.177C182.722 156.163 183.654 154.868 184.972 153.913C186.29 152.958 187.859 152.481 189.677 152.481C191.518 152.481 193.103 152.97 194.432 153.947C195.762 154.913 196.563 156.197 196.836 157.799H197.109C197.552 156.197 198.495 154.913 199.938 153.947C201.381 152.97 203.074 152.481 205.018 152.481C207.529 152.481 209.563 153.288 211.12 154.902C212.688 156.515 213.472 158.663 213.472 161.345V179.004H204.063V163.731C204.063 162.583 203.773 161.686 203.194 161.038C202.614 160.379 201.836 160.049 200.859 160.049C199.893 160.049 199.126 160.379 198.557 161.038C198.001 161.686 197.722 162.583 197.722 163.731V179.004H188.722V163.731C188.722 162.583 188.432 161.686 187.853 161.038C187.273 160.379 186.495 160.049 185.518 160.049C184.87 160.049 184.313 160.197 183.847 160.493C183.381 160.788 183.018 161.214 182.756 161.771C182.506 162.316 182.381 162.97 182.381 163.731V179.004H172.972ZM230.178 179.481C227.383 179.481 224.974 178.947 222.951 177.879C220.94 176.799 219.389 175.254 218.298 173.243C217.218 171.22 216.678 168.799 216.678 165.981C216.678 163.277 217.224 160.913 218.315 158.89C219.406 156.868 220.945 155.294 222.934 154.169C224.923 153.044 227.269 152.481 229.974 152.481C231.951 152.481 233.741 152.788 235.343 153.402C236.945 154.015 238.315 154.907 239.451 156.078C240.587 157.237 241.462 158.646 242.076 160.305C242.69 161.964 242.996 163.833 242.996 165.913V168.095H219.61V162.913H234.337C234.326 162.163 234.133 161.504 233.758 160.936C233.394 160.356 232.9 159.907 232.275 159.589C231.661 159.26 230.962 159.095 230.178 159.095C229.417 159.095 228.718 159.26 228.082 159.589C227.445 159.907 226.934 160.35 226.548 160.919C226.173 161.487 225.974 162.152 225.951 162.913V168.504C225.951 169.345 226.127 170.095 226.479 170.754C226.832 171.413 227.337 171.93 227.996 172.305C228.656 172.68 229.451 172.868 230.383 172.868C231.031 172.868 231.621 172.777 232.156 172.595C232.701 172.413 233.167 172.152 233.553 171.811C233.94 171.458 234.224 171.038 234.406 170.549H242.996C242.701 172.368 242.002 173.947 240.9 175.288C239.798 176.618 238.337 177.652 236.519 178.39C234.712 179.118 232.599 179.481 230.178 179.481ZM262.734 179.413C261.063 179.413 259.586 179.14 258.302 178.595C257.029 178.038 256.029 177.197 255.302 176.072C254.575 174.947 254.211 173.515 254.211 171.777C254.211 170.345 254.456 169.123 254.944 168.112C255.433 167.089 256.115 166.254 256.99 165.606C257.865 164.958 258.882 164.464 260.041 164.123C261.211 163.782 262.473 163.561 263.825 163.458C265.291 163.345 266.467 163.208 267.353 163.049C268.251 162.879 268.899 162.646 269.296 162.35C269.694 162.044 269.893 161.64 269.893 161.14V161.072C269.893 160.39 269.632 159.868 269.109 159.504C268.586 159.14 267.916 158.958 267.098 158.958C266.2 158.958 265.467 159.157 264.899 159.555C264.342 159.941 264.007 160.538 263.893 161.345H255.234C255.348 159.754 255.853 158.288 256.751 156.947C257.66 155.595 258.984 154.515 260.723 153.708C262.461 152.89 264.632 152.481 267.234 152.481C269.109 152.481 270.791 152.703 272.279 153.146C273.768 153.578 275.035 154.186 276.081 154.97C277.126 155.743 277.921 156.652 278.467 157.697C279.024 158.731 279.302 159.856 279.302 161.072V179.004H270.507V175.322H270.302C269.779 176.299 269.143 177.089 268.393 177.691C267.654 178.294 266.808 178.731 265.853 179.004C264.91 179.277 263.87 179.413 262.734 179.413ZM265.802 173.481C266.518 173.481 267.188 173.333 267.813 173.038C268.45 172.743 268.967 172.316 269.365 171.76C269.762 171.203 269.961 170.527 269.961 169.731V167.549C269.711 167.652 269.444 167.748 269.16 167.839C268.887 167.93 268.592 168.015 268.274 168.095C267.967 168.174 267.637 168.248 267.285 168.316C266.944 168.385 266.586 168.447 266.211 168.504C265.484 168.618 264.887 168.805 264.421 169.066C263.967 169.316 263.626 169.629 263.399 170.004C263.183 170.368 263.075 170.777 263.075 171.231C263.075 171.958 263.331 172.515 263.842 172.902C264.353 173.288 265.007 173.481 265.802 173.481ZM292.4 179.004V152.822H301.332V157.799H301.605C302.15 156.163 303.082 154.868 304.4 153.913C305.719 152.958 307.287 152.481 309.105 152.481C310.946 152.481 312.531 152.97 313.861 153.947C315.19 154.913 315.991 156.197 316.264 157.799H316.537C316.98 156.197 317.923 154.913 319.366 153.947C320.809 152.97 322.503 152.481 324.446 152.481C326.957 152.481 328.991 153.288 330.548 154.902C332.116 156.515 332.9 158.663 332.9 161.345V179.004H323.491V163.731C323.491 162.583 323.201 161.686 322.622 161.038C322.042 160.379 321.264 160.049 320.287 160.049C319.321 160.049 318.554 160.379 317.986 161.038C317.429 161.686 317.15 162.583 317.15 163.731V179.004H308.15V163.731C308.15 162.583 307.861 161.686 307.281 161.038C306.701 160.379 305.923 160.049 304.946 160.049C304.298 160.049 303.741 160.197 303.275 160.493C302.809 160.788 302.446 161.214 302.184 161.771C301.934 162.316 301.809 162.97 301.809 163.731V179.004H292.4ZM349.606 179.481C346.811 179.481 344.402 178.947 342.379 177.879C340.368 176.799 338.817 175.254 337.726 173.243C336.646 171.22 336.106 168.799 336.106 165.981C336.106 163.277 336.652 160.913 337.743 158.89C338.834 156.868 340.373 155.294 342.362 154.169C344.351 153.044 346.697 152.481 349.402 152.481C351.379 152.481 353.169 152.788 354.771 153.402C356.373 154.015 357.743 154.907 358.879 156.078C360.016 157.237 360.891 158.646 361.504 160.305C362.118 161.964 362.425 163.833 362.425 165.913V168.095H339.038V162.913H353.766C353.754 162.163 353.561 161.504 353.186 160.936C352.822 160.356 352.328 159.907 351.703 159.589C351.089 159.26 350.391 159.095 349.606 159.095C348.845 159.095 348.146 159.26 347.51 159.589C346.873 159.907 346.362 160.35 345.976 160.919C345.601 161.487 345.402 162.152 345.379 162.913V168.504C345.379 169.345 345.555 170.095 345.908 170.754C346.26 171.413 346.766 171.93 347.425 172.305C348.084 172.68 348.879 172.868 349.811 172.868C350.459 172.868 351.05 172.777 351.584 172.595C352.129 172.413 352.595 172.152 352.981 171.811C353.368 171.458 353.652 171.038 353.834 170.549H362.425C362.129 172.368 361.43 173.947 360.328 175.288C359.226 176.618 357.766 177.652 355.947 178.39C354.141 179.118 352.027 179.481 349.606 179.481ZM365.784 179.004V152.822H374.716V157.799H374.989C375.534 156.163 376.466 154.868 377.784 153.913C379.102 152.958 380.67 152.481 382.489 152.481C384.33 152.481 385.915 152.97 387.244 153.947C388.574 154.913 389.375 156.197 389.648 157.799H389.92C390.364 156.197 391.307 154.913 392.75 153.947C394.193 152.97 395.886 152.481 397.83 152.481C400.341 152.481 402.375 153.288 403.932 154.902C405.5 156.515 406.284 158.663 406.284 161.345V179.004H396.875V163.731C396.875 162.583 396.585 161.686 396.006 161.038C395.426 160.379 394.648 160.049 393.67 160.049C392.705 160.049 391.938 160.379 391.369 161.038C390.813 161.686 390.534 162.583 390.534 163.731V179.004H381.534V163.731C381.534 162.583 381.244 161.686 380.665 161.038C380.085 160.379 379.307 160.049 378.33 160.049C377.682 160.049 377.125 160.197 376.659 160.493C376.193 160.788 375.83 161.214 375.568 161.771C375.318 162.316 375.193 162.97 375.193 163.731V179.004H365.784ZM410.308 179.004V144.095H419.717V157.39H419.854C420.195 156.504 420.695 155.691 421.354 154.953C422.013 154.203 422.831 153.606 423.808 153.163C424.786 152.708 425.922 152.481 427.217 152.481C428.945 152.481 430.587 152.941 432.144 153.862C433.712 154.782 434.984 156.231 435.962 158.208C436.95 160.186 437.445 162.754 437.445 165.913C437.445 168.936 436.973 171.441 436.03 173.43C435.098 175.419 433.848 176.902 432.28 177.879C430.723 178.856 429.013 179.345 427.149 179.345C425.922 179.345 424.825 179.146 423.859 178.748C422.905 178.339 422.087 177.788 421.405 177.095C420.734 176.39 420.217 175.595 419.854 174.708H419.649V179.004H410.308ZM419.513 165.913C419.513 167.186 419.678 168.288 420.007 169.22C420.348 170.14 420.825 170.856 421.439 171.368C422.064 171.868 422.808 172.118 423.672 172.118C424.536 172.118 425.269 171.873 425.871 171.385C426.484 170.885 426.95 170.174 427.269 169.254C427.598 168.322 427.763 167.208 427.763 165.913C427.763 164.618 427.598 163.51 427.269 162.589C426.95 161.657 426.484 160.947 425.871 160.458C425.269 159.958 424.536 159.708 423.672 159.708C422.808 159.708 422.064 159.958 421.439 160.458C420.825 160.947 420.348 161.657 420.007 162.589C419.678 163.51 419.513 164.618 419.513 165.913ZM453.448 179.481C450.652 179.481 448.243 178.947 446.22 177.879C444.209 176.799 442.658 175.254 441.567 173.243C440.487 171.22 439.948 168.799 439.948 165.981C439.948 163.277 440.493 160.913 441.584 158.89C442.675 156.868 444.215 155.294 446.203 154.169C448.192 153.044 450.539 152.481 453.243 152.481C455.22 152.481 457.01 152.788 458.612 153.402C460.215 154.015 461.584 154.907 462.72 156.078C463.857 157.237 464.732 158.646 465.345 160.305C465.959 161.964 466.266 163.833 466.266 165.913V168.095H442.88V162.913H457.607C457.595 162.163 457.402 161.504 457.027 160.936C456.664 160.356 456.169 159.907 455.544 159.589C454.931 159.26 454.232 159.095 453.448 159.095C452.686 159.095 451.987 159.26 451.351 159.589C450.715 159.907 450.203 160.35 449.817 160.919C449.442 161.487 449.243 162.152 449.22 162.913V168.504C449.22 169.345 449.397 170.095 449.749 170.754C450.101 171.413 450.607 171.93 451.266 172.305C451.925 172.68 452.72 172.868 453.652 172.868C454.3 172.868 454.891 172.777 455.425 172.595C455.97 172.413 456.436 172.152 456.823 171.811C457.209 171.458 457.493 171.038 457.675 170.549H466.266C465.97 172.368 465.272 173.947 464.169 175.288C463.067 176.618 461.607 177.652 459.789 178.39C457.982 179.118 455.868 179.481 453.448 179.481ZM469.625 179.004V152.822H478.762V157.799H479.034C479.512 155.958 480.267 154.612 481.301 153.76C482.347 152.907 483.569 152.481 484.966 152.481C485.375 152.481 485.779 152.515 486.176 152.583C486.586 152.64 486.978 152.725 487.353 152.839V160.868C486.887 160.708 486.313 160.589 485.631 160.51C484.949 160.43 484.364 160.39 483.875 160.39C482.955 160.39 482.125 160.6 481.387 161.021C480.659 161.43 480.086 162.01 479.665 162.76C479.245 163.498 479.034 164.368 479.034 165.368V179.004H469.625ZM511.654 179.481C508.813 179.481 506.381 178.919 504.359 177.794C502.336 176.657 500.785 175.078 499.705 173.055C498.626 171.021 498.086 168.663 498.086 165.981C498.086 163.299 498.626 160.947 499.705 158.924C500.785 156.89 502.336 155.311 504.359 154.186C506.381 153.049 508.813 152.481 511.654 152.481C514.495 152.481 516.927 153.049 518.949 154.186C520.972 155.311 522.523 156.89 523.603 158.924C524.682 160.947 525.222 163.299 525.222 165.981C525.222 168.663 524.682 171.021 523.603 173.055C522.523 175.078 520.972 176.657 518.949 177.794C516.927 178.919 514.495 179.481 511.654 179.481ZM511.722 172.527C512.518 172.527 513.205 172.26 513.785 171.725C514.364 171.191 514.813 170.43 515.131 169.441C515.449 168.453 515.609 167.277 515.609 165.913C515.609 164.538 515.449 163.362 515.131 162.385C514.813 161.396 514.364 160.635 513.785 160.1C513.205 159.566 512.518 159.299 511.722 159.299C510.881 159.299 510.16 159.566 509.557 160.1C508.955 160.635 508.495 161.396 508.177 162.385C507.859 163.362 507.699 164.538 507.699 165.913C507.699 167.277 507.859 168.453 508.177 169.441C508.495 170.43 508.955 171.191 509.557 171.725C510.16 172.26 510.881 172.527 511.722 172.527ZM544.242 152.822V159.64H526.719V152.822H544.242ZM530.06 179.004V152.072C530.06 149.913 530.447 148.123 531.219 146.703C531.992 145.282 533.083 144.22 534.492 143.515C535.901 142.811 537.56 142.458 539.469 142.458C540.663 142.458 541.822 142.549 542.947 142.731C544.083 142.913 544.924 143.072 545.469 143.208L544.106 149.958C543.765 149.856 543.367 149.777 542.913 149.72C542.458 149.652 542.06 149.618 541.719 149.618C540.833 149.618 540.236 149.805 539.93 150.18C539.623 150.555 539.469 151.049 539.469 151.663V179.004H530.06ZM572.089 152.822V159.64H554.839V152.822H572.089ZM558.18 146.549H567.589V170.583C567.589 170.947 567.651 171.254 567.776 171.504C567.901 171.743 568.095 171.924 568.356 172.049C568.617 172.163 568.953 172.22 569.362 172.22C569.646 172.22 569.975 172.186 570.35 172.118C570.737 172.049 571.021 171.993 571.203 171.947L572.566 178.561C572.146 178.686 571.544 178.839 570.759 179.021C569.987 179.203 569.066 179.322 567.998 179.379C565.839 179.493 564.026 179.271 562.561 178.714C561.095 178.146 559.992 177.254 559.254 176.038C558.515 174.822 558.157 173.299 558.18 171.47V146.549ZM585.42 164.277V179.004H576.011V144.095H585.079V157.799H585.352C585.943 156.129 586.926 154.828 588.301 153.896C589.676 152.953 591.329 152.481 593.261 152.481C595.113 152.481 596.721 152.902 598.085 153.743C599.46 154.583 600.522 155.743 601.272 157.22C602.034 158.697 602.409 160.39 602.397 162.299V179.004H592.988V164.277C593 162.981 592.676 161.964 592.017 161.225C591.369 160.487 590.443 160.118 589.238 160.118C588.477 160.118 587.806 160.288 587.227 160.629C586.659 160.958 586.216 161.436 585.897 162.061C585.591 162.674 585.431 163.413 585.42 164.277ZM619.108 179.481C616.312 179.481 613.903 178.947 611.88 177.879C609.869 176.799 608.318 175.254 607.227 173.243C606.147 171.22 605.608 168.799 605.608 165.981C605.608 163.277 606.153 160.913 607.244 158.89C608.335 156.868 609.875 155.294 611.863 154.169C613.852 153.044 616.199 152.481 618.903 152.481C620.88 152.481 622.67 152.788 624.272 153.402C625.875 154.015 627.244 154.907 628.38 156.078C629.517 157.237 630.392 158.646 631.005 160.305C631.619 161.964 631.926 163.833 631.926 165.913V168.095H608.539V162.913H623.267C623.255 162.163 623.062 161.504 622.687 160.936C622.324 160.356 621.829 159.907 621.204 159.589C620.591 159.26 619.892 159.095 619.108 159.095C618.346 159.095 617.647 159.26 617.011 159.589C616.375 159.907 615.863 160.35 615.477 160.919C615.102 161.487 614.903 162.152 614.88 162.913V168.504C614.88 169.345 615.057 170.095 615.409 170.754C615.761 171.413 616.267 171.93 616.926 172.305C617.585 172.68 618.38 172.868 619.312 172.868C619.96 172.868 620.551 172.777 621.085 172.595C621.63 172.413 622.096 172.152 622.483 171.811C622.869 171.458 623.153 171.038 623.335 170.549H631.926C631.63 172.368 630.932 173.947 629.829 175.288C628.727 176.618 627.267 177.652 625.449 178.39C623.642 179.118 621.528 179.481 619.108 179.481ZM54.3809 227.004V192.095H63.79V205.39H63.9263C64.2672 204.504 64.7672 203.691 65.4263 202.953C66.0854 202.203 66.9036 201.606 67.8809 201.163C68.8581 200.708 69.9945 200.481 71.29 200.481C73.0172 200.481 74.6593 200.941 76.2161 201.862C77.7843 202.782 79.057 204.231 80.0343 206.208C81.0229 208.186 81.5172 210.754 81.5172 213.913C81.5172 216.936 81.0456 219.441 80.1025 221.43C79.1706 223.419 77.9206 224.902 76.3525 225.879C74.7956 226.856 73.0854 227.345 71.2218 227.345C69.9945 227.345 68.8979 227.146 67.932 226.748C66.9775 226.339 66.1593 225.788 65.4775 225.095C64.807 224.39 64.29 223.595 63.9263 222.708H63.7218V227.004H54.3809ZM63.5854 213.913C63.5854 215.186 63.7502 216.288 64.0797 217.22C64.4206 218.14 64.8979 218.856 65.5115 219.368C66.1365 219.868 66.8809 220.118 67.7445 220.118C68.6081 220.118 69.3411 219.873 69.9434 219.385C70.557 218.885 71.0229 218.174 71.3411 217.254C71.6706 216.322 71.8354 215.208 71.8354 213.913C71.8354 212.618 71.6706 211.51 71.3411 210.589C71.0229 209.657 70.557 208.947 69.9434 208.458C69.3411 207.958 68.6081 207.708 67.7445 207.708C66.8809 207.708 66.1365 207.958 65.5115 208.458C64.8979 208.947 64.4206 209.657 64.0797 210.589C63.7502 211.51 63.5854 212.618 63.5854 213.913ZM97.5202 227.481C94.7247 227.481 92.3156 226.947 90.2929 225.879C88.2815 224.799 86.7304 223.254 85.6395 221.243C84.56 219.22 84.0202 216.799 84.0202 213.981C84.0202 211.277 84.5656 208.913 85.6565 206.89C86.7475 204.868 88.2872 203.294 90.2759 202.169C92.2645 201.044 94.6111 200.481 97.3156 200.481C99.2929 200.481 101.083 200.788 102.685 201.402C104.287 202.015 105.657 202.907 106.793 204.078C107.929 205.237 108.804 206.646 109.418 208.305C110.032 209.964 110.338 211.833 110.338 213.913V216.095H86.952V210.913H101.679C101.668 210.163 101.475 209.504 101.1 208.936C100.736 208.356 100.242 207.907 99.6168 207.589C99.0031 207.26 98.3043 207.095 97.5202 207.095C96.7588 207.095 96.06 207.26 95.4236 207.589C94.7872 207.907 94.2759 208.35 93.8895 208.919C93.5145 209.487 93.3156 210.152 93.2929 210.913V216.504C93.2929 217.345 93.469 218.095 93.8213 218.754C94.1736 219.413 94.6793 219.93 95.3384 220.305C95.9975 220.68 96.7929 220.868 97.7247 220.868C98.3725 220.868 98.9634 220.777 99.4975 220.595C100.043 220.413 100.509 220.152 100.895 219.811C101.282 219.458 101.566 219.038 101.747 218.549H110.338C110.043 220.368 109.344 221.947 108.242 223.288C107.139 224.618 105.679 225.652 103.861 226.39C102.054 227.118 99.9406 227.481 97.5202 227.481ZM137.63 209.345H128.971C128.925 208.811 128.738 208.35 128.408 207.964C128.079 207.578 127.652 207.282 127.13 207.078C126.618 206.862 126.05 206.754 125.425 206.754C124.618 206.754 123.925 206.902 123.346 207.197C122.766 207.493 122.482 207.913 122.493 208.458C122.482 208.845 122.647 209.203 122.988 209.532C123.34 209.862 124.016 210.118 125.016 210.299L130.334 211.254C133.016 211.743 135.01 212.566 136.317 213.725C137.635 214.873 138.3 216.413 138.311 218.345C138.3 220.208 137.743 221.828 136.641 223.203C135.55 224.566 134.056 225.623 132.158 226.373C130.272 227.112 128.118 227.481 125.698 227.481C121.698 227.481 118.567 226.663 116.306 225.027C114.056 223.39 112.8 221.231 112.539 218.549H121.88C122.005 219.379 122.414 220.021 123.107 220.475C123.811 220.919 124.698 221.14 125.766 221.14C126.63 221.14 127.34 220.993 127.897 220.697C128.465 220.402 128.755 219.981 128.766 219.436C128.755 218.936 128.505 218.538 128.016 218.243C127.539 217.947 126.789 217.708 125.766 217.527L121.13 216.708C118.459 216.243 116.459 215.356 115.13 214.049C113.8 212.743 113.141 211.061 113.152 209.004C113.141 207.186 113.618 205.646 114.584 204.385C115.561 203.112 116.954 202.146 118.76 201.487C120.579 200.816 122.732 200.481 125.221 200.481C129.005 200.481 131.988 201.265 134.169 202.833C136.363 204.402 137.516 206.572 137.63 209.345ZM157.05 200.822V207.64H139.8V200.822H157.05ZM143.141 194.549H152.55V218.583C152.55 218.947 152.613 219.254 152.738 219.504C152.863 219.743 153.056 219.924 153.317 220.049C153.579 220.163 153.914 220.22 154.323 220.22C154.607 220.22 154.937 220.186 155.312 220.118C155.698 220.049 155.982 219.993 156.164 219.947L157.528 226.561C157.107 226.686 156.505 226.839 155.721 227.021C154.948 227.203 154.028 227.322 152.959 227.379C150.8 227.493 148.988 227.271 147.522 226.714C146.056 226.146 144.954 225.254 144.215 224.038C143.476 222.822 143.118 221.299 143.141 219.47V194.549ZM182.106 227.481C179.265 227.481 176.833 226.919 174.81 225.794C172.788 224.657 171.237 223.078 170.157 221.055C169.077 219.021 168.538 216.663 168.538 213.981C168.538 211.299 169.077 208.947 170.157 206.924C171.237 204.89 172.788 203.311 174.81 202.186C176.833 201.049 179.265 200.481 182.106 200.481C184.674 200.481 186.896 200.947 188.771 201.879C190.657 202.799 192.117 204.106 193.151 205.799C194.185 207.481 194.708 209.458 194.719 211.731H185.992C185.867 210.356 185.469 209.311 184.799 208.595C184.14 207.868 183.288 207.504 182.242 207.504C181.424 207.504 180.708 207.743 180.094 208.22C179.481 208.686 179.004 209.396 178.663 210.35C178.322 211.294 178.151 212.481 178.151 213.913C178.151 215.345 178.322 216.538 178.663 217.493C179.004 218.436 179.481 219.146 180.094 219.623C180.708 220.089 181.424 220.322 182.242 220.322C182.935 220.322 183.549 220.163 184.083 219.845C184.617 219.515 185.049 219.038 185.379 218.413C185.719 217.777 185.924 217.004 185.992 216.095H194.719C194.685 218.402 194.157 220.413 193.134 222.129C192.112 223.833 190.663 225.152 188.788 226.083C186.924 227.015 184.697 227.481 182.106 227.481ZM198.122 227.004V200.822H207.258V205.799H207.531C208.008 203.958 208.764 202.612 209.798 201.76C210.843 200.907 212.065 200.481 213.463 200.481C213.872 200.481 214.275 200.515 214.673 200.583C215.082 200.64 215.474 200.725 215.849 200.839V208.868C215.383 208.708 214.809 208.589 214.127 208.51C213.445 208.43 212.86 208.39 212.372 208.39C211.451 208.39 210.622 208.6 209.883 209.021C209.156 209.43 208.582 210.01 208.161 210.76C207.741 211.498 207.531 212.368 207.531 213.368V227.004H198.122ZM229.5 227.481C226.704 227.481 224.295 226.947 222.272 225.879C220.261 224.799 218.71 223.254 217.619 221.243C216.539 219.22 216 216.799 216 213.981C216 211.277 216.545 208.913 217.636 206.89C218.727 204.868 220.267 203.294 222.255 202.169C224.244 201.044 226.59 200.481 229.295 200.481C231.272 200.481 233.062 200.788 234.664 201.402C236.267 202.015 237.636 202.907 238.772 204.078C239.909 205.237 240.784 206.646 241.397 208.305C242.011 209.964 242.318 211.833 242.318 213.913V216.095H218.931V210.913H233.659C233.647 210.163 233.454 209.504 233.079 208.936C232.715 208.356 232.221 207.907 231.596 207.589C230.983 207.26 230.284 207.095 229.5 207.095C228.738 207.095 228.039 207.26 227.403 207.589C226.767 207.907 226.255 208.35 225.869 208.919C225.494 209.487 225.295 210.152 225.272 210.913V216.504C225.272 217.345 225.448 218.095 225.801 218.754C226.153 219.413 226.659 219.93 227.318 220.305C227.977 220.68 228.772 220.868 229.704 220.868C230.352 220.868 230.943 220.777 231.477 220.595C232.022 220.413 232.488 220.152 232.875 219.811C233.261 219.458 233.545 219.038 233.727 218.549H242.318C242.022 220.368 241.323 221.947 240.221 223.288C239.119 224.618 237.659 225.652 235.84 226.39C234.034 227.118 231.92 227.481 229.5 227.481ZM252.973 227.413C251.302 227.413 249.825 227.14 248.541 226.595C247.268 226.038 246.268 225.197 245.541 224.072C244.814 222.947 244.45 221.515 244.45 219.777C244.45 218.345 244.694 217.123 245.183 216.112C245.672 215.089 246.353 214.254 247.228 213.606C248.103 212.958 249.12 212.464 250.279 212.123C251.45 211.782 252.711 211.561 254.064 211.458C255.53 211.345 256.706 211.208 257.592 211.049C258.49 210.879 259.137 210.646 259.535 210.35C259.933 210.044 260.132 209.64 260.132 209.14V209.072C260.132 208.39 259.87 207.868 259.348 207.504C258.825 207.14 258.154 206.958 257.336 206.958C256.439 206.958 255.706 207.157 255.137 207.555C254.581 207.941 254.245 208.538 254.132 209.345H245.473C245.586 207.754 246.092 206.288 246.99 204.947C247.899 203.595 249.223 202.515 250.961 201.708C252.7 200.89 254.87 200.481 257.473 200.481C259.348 200.481 261.03 200.703 262.518 201.146C264.007 201.578 265.274 202.186 266.319 202.97C267.365 203.743 268.16 204.652 268.706 205.697C269.262 206.731 269.541 207.856 269.541 209.072V227.004H260.745V223.322H260.541C260.018 224.299 259.382 225.089 258.632 225.691C257.893 226.294 257.047 226.731 256.092 227.004C255.149 227.277 254.109 227.413 252.973 227.413ZM256.041 221.481C256.757 221.481 257.427 221.333 258.052 221.038C258.689 220.743 259.206 220.316 259.603 219.76C260.001 219.203 260.2 218.527 260.2 217.731V215.549C259.95 215.652 259.683 215.748 259.399 215.839C259.126 215.93 258.831 216.015 258.512 216.095C258.206 216.174 257.876 216.248 257.524 216.316C257.183 216.385 256.825 216.447 256.45 216.504C255.723 216.618 255.126 216.805 254.66 217.066C254.206 217.316 253.865 217.629 253.637 218.004C253.422 218.368 253.314 218.777 253.314 219.231C253.314 219.958 253.569 220.515 254.081 220.902C254.592 221.288 255.245 221.481 256.041 221.481ZM289.17 200.822V207.64H271.92V200.822H289.17ZM275.261 194.549H284.67V218.583C284.67 218.947 284.733 219.254 284.858 219.504C284.983 219.743 285.176 219.924 285.437 220.049C285.699 220.163 286.034 220.22 286.443 220.22C286.727 220.22 287.057 220.186 287.432 220.118C287.818 220.049 288.102 219.993 288.284 219.947L289.648 226.561C289.227 226.686 288.625 226.839 287.841 227.021C287.068 227.203 286.148 227.322 285.079 227.379C282.92 227.493 281.108 227.271 279.642 226.714C278.176 226.146 277.074 225.254 276.335 224.038C275.596 222.822 275.238 221.299 275.261 219.47V194.549ZM292.53 227.004V200.822H301.939V227.004H292.53ZM297.234 198.095C295.962 198.095 294.871 197.674 293.962 196.833C293.052 195.993 292.598 194.981 292.598 193.799C292.598 192.618 293.052 191.606 293.962 190.765C294.871 189.924 295.962 189.504 297.234 189.504C298.518 189.504 299.609 189.924 300.507 190.765C301.416 191.606 301.871 192.618 301.871 193.799C301.871 194.981 301.416 195.993 300.507 196.833C299.609 197.674 298.518 198.095 297.234 198.095ZM332.639 200.822L323.844 227.004H312.935L304.139 200.822H314.026L318.253 218.14H318.526L322.753 200.822H332.639ZM346.584 227.481C343.788 227.481 341.379 226.947 339.357 225.879C337.345 224.799 335.794 223.254 334.703 221.243C333.624 219.22 333.084 216.799 333.084 213.981C333.084 211.277 333.629 208.913 334.72 206.89C335.811 204.868 337.351 203.294 339.34 202.169C341.328 201.044 343.675 200.481 346.379 200.481C348.357 200.481 350.146 200.788 351.749 201.402C353.351 202.015 354.72 202.907 355.857 204.078C356.993 205.237 357.868 206.646 358.482 208.305C359.095 209.964 359.402 211.833 359.402 213.913V216.095H336.016V210.913H350.743C350.732 210.163 350.538 209.504 350.163 208.936C349.8 208.356 349.306 207.907 348.681 207.589C348.067 207.26 347.368 207.095 346.584 207.095C345.823 207.095 345.124 207.26 344.487 207.589C343.851 207.907 343.34 208.35 342.953 208.919C342.578 209.487 342.379 210.152 342.357 210.913V216.504C342.357 217.345 342.533 218.095 342.885 218.754C343.237 219.413 343.743 219.93 344.402 220.305C345.061 220.68 345.857 220.868 346.788 220.868C347.436 220.868 348.027 220.777 348.561 220.595C349.107 220.413 349.573 220.152 349.959 219.811C350.345 219.458 350.629 219.038 350.811 218.549H359.402C359.107 220.368 358.408 221.947 357.306 223.288C356.203 224.618 354.743 225.652 352.925 226.39C351.118 227.118 349.004 227.481 346.584 227.481ZM384.458 227.481C381.617 227.481 379.185 226.919 377.162 225.794C375.14 224.657 373.588 223.078 372.509 221.055C371.429 219.021 370.89 216.663 370.89 213.981C370.89 211.299 371.429 208.947 372.509 206.924C373.588 204.89 375.14 203.311 377.162 202.186C379.185 201.049 381.617 200.481 384.458 200.481C387.026 200.481 389.248 200.947 391.123 201.879C393.009 202.799 394.469 204.106 395.503 205.799C396.537 207.481 397.06 209.458 397.071 211.731H388.344C388.219 210.356 387.821 209.311 387.151 208.595C386.492 207.868 385.64 207.504 384.594 207.504C383.776 207.504 383.06 207.743 382.446 208.22C381.833 208.686 381.355 209.396 381.015 210.35C380.674 211.294 380.503 212.481 380.503 213.913C380.503 215.345 380.674 216.538 381.015 217.493C381.355 218.436 381.833 219.146 382.446 219.623C383.06 220.089 383.776 220.322 384.594 220.322C385.287 220.322 385.901 220.163 386.435 219.845C386.969 219.515 387.401 219.038 387.73 218.413C388.071 217.777 388.276 217.004 388.344 216.095H397.071C397.037 218.402 396.509 220.413 395.486 222.129C394.463 223.833 393.015 225.152 391.14 226.083C389.276 227.015 387.049 227.481 384.458 227.481ZM413.087 227.481C410.246 227.481 407.814 226.919 405.792 225.794C403.769 224.657 402.218 223.078 401.138 221.055C400.059 219.021 399.519 216.663 399.519 213.981C399.519 211.299 400.059 208.947 401.138 206.924C402.218 204.89 403.769 203.311 405.792 202.186C407.814 201.049 410.246 200.481 413.087 200.481C415.928 200.481 418.36 201.049 420.383 202.186C422.405 203.311 423.956 204.89 425.036 206.924C426.116 208.947 426.655 211.299 426.655 213.981C426.655 216.663 426.116 219.021 425.036 221.055C423.956 223.078 422.405 224.657 420.383 225.794C418.36 226.919 415.928 227.481 413.087 227.481ZM413.155 220.527C413.951 220.527 414.638 220.26 415.218 219.725C415.797 219.191 416.246 218.43 416.564 217.441C416.883 216.453 417.042 215.277 417.042 213.913C417.042 212.538 416.883 211.362 416.564 210.385C416.246 209.396 415.797 208.635 415.218 208.1C414.638 207.566 413.951 207.299 413.155 207.299C412.314 207.299 411.593 207.566 410.991 208.1C410.388 208.635 409.928 209.396 409.61 210.385C409.292 211.362 409.133 212.538 409.133 213.913C409.133 215.277 409.292 216.453 409.61 217.441C409.928 218.43 410.388 219.191 410.991 219.725C411.593 220.26 412.314 220.527 413.155 220.527ZM429.993 227.004V200.822H438.925V205.799H439.198C439.743 204.163 440.675 202.868 441.993 201.913C443.312 200.958 444.88 200.481 446.698 200.481C448.539 200.481 450.124 200.97 451.454 201.947C452.783 202.913 453.584 204.197 453.857 205.799H454.13C454.573 204.197 455.516 202.913 456.959 201.947C458.403 200.97 460.096 200.481 462.039 200.481C464.55 200.481 466.584 201.288 468.141 202.902C469.709 204.515 470.493 206.663 470.493 209.345V227.004H461.084V211.731C461.084 210.583 460.795 209.686 460.215 209.038C459.636 208.379 458.857 208.049 457.88 208.049C456.914 208.049 456.147 208.379 455.579 209.038C455.022 209.686 454.743 210.583 454.743 211.731V227.004H445.743V211.731C445.743 210.583 445.454 209.686 444.874 209.038C444.295 208.379 443.516 208.049 442.539 208.049C441.891 208.049 441.334 208.197 440.868 208.493C440.403 208.788 440.039 209.214 439.778 209.771C439.528 210.316 439.403 210.97 439.403 211.731V227.004H429.993ZM474.654 227.004V200.822H483.586V205.799H483.859C484.404 204.163 485.336 202.868 486.654 201.913C487.972 200.958 489.54 200.481 491.359 200.481C493.2 200.481 494.785 200.97 496.114 201.947C497.444 202.913 498.245 204.197 498.518 205.799H498.79C499.234 204.197 500.177 202.913 501.62 201.947C503.063 200.97 504.756 200.481 506.7 200.481C509.211 200.481 511.245 201.288 512.802 202.902C514.37 204.515 515.154 206.663 515.154 209.345V227.004H505.745V211.731C505.745 210.583 505.455 209.686 504.876 209.038C504.296 208.379 503.518 208.049 502.54 208.049C501.575 208.049 500.808 208.379 500.239 209.038C499.683 209.686 499.404 210.583 499.404 211.731V227.004H490.404V211.731C490.404 210.583 490.114 209.686 489.535 209.038C488.955 208.379 488.177 208.049 487.2 208.049C486.552 208.049 485.995 208.197 485.529 208.493C485.063 208.788 484.7 209.214 484.438 209.771C484.188 210.316 484.063 210.97 484.063 211.731V227.004H474.654ZM536.292 215.549V200.822H545.701V227.004H536.769V222.027H536.497C535.928 223.697 534.934 225.004 533.514 225.947C532.093 226.879 530.406 227.345 528.451 227.345C526.622 227.345 525.019 226.924 523.644 226.083C522.281 225.243 521.218 224.083 520.457 222.606C519.707 221.129 519.326 219.436 519.315 217.527V200.822H528.724V215.549C528.735 216.845 529.065 217.862 529.712 218.6C530.372 219.339 531.292 219.708 532.474 219.708C533.258 219.708 533.934 219.544 534.502 219.214C535.082 218.873 535.525 218.396 535.832 217.782C536.15 217.157 536.303 216.413 536.292 215.549ZM559.416 212.277V227.004H550.007V200.822H558.938V205.799H559.211C559.779 204.14 560.779 202.839 562.211 201.896C563.654 200.953 565.336 200.481 567.257 200.481C569.109 200.481 570.717 200.907 572.08 201.76C573.455 202.6 574.518 203.76 575.268 205.237C576.029 206.714 576.404 208.402 576.393 210.299V227.004H566.984V212.277C566.995 210.981 566.666 209.964 565.995 209.225C565.336 208.487 564.416 208.118 563.234 208.118C562.461 208.118 561.785 208.288 561.205 208.629C560.637 208.958 560.2 209.436 559.893 210.061C559.586 210.674 559.427 211.413 559.416 212.277ZM580.558 227.004V200.822H589.967V227.004H580.558ZM585.262 198.095C583.99 198.095 582.899 197.674 581.99 196.833C581.081 195.993 580.626 194.981 580.626 193.799C580.626 192.618 581.081 191.606 581.99 190.765C582.899 189.924 583.99 189.504 585.262 189.504C586.547 189.504 587.637 189.924 588.535 190.765C589.444 191.606 589.899 192.618 589.899 193.799C589.899 194.981 589.444 195.993 588.535 196.833C587.637 197.674 586.547 198.095 585.262 198.095ZM609.895 200.822V207.64H592.645V200.822H609.895ZM595.986 194.549H605.395V218.583C605.395 218.947 605.457 219.254 605.582 219.504C605.707 219.743 605.9 219.924 606.162 220.049C606.423 220.163 606.758 220.22 607.167 220.22C607.451 220.22 607.781 220.186 608.156 220.118C608.542 220.049 608.826 219.993 609.008 219.947L610.372 226.561C609.951 226.686 609.349 226.839 608.565 227.021C607.792 227.203 606.872 227.322 605.804 227.379C603.645 227.493 601.832 227.271 600.366 226.714C598.9 226.146 597.798 225.254 597.059 224.038C596.321 222.822 595.963 221.299 595.986 219.47V194.549ZM618.981 236.822C617.902 236.822 616.873 236.737 615.896 236.566C614.919 236.407 614.061 236.186 613.322 235.902L615.368 229.22C616.14 229.493 616.845 229.669 617.481 229.748C618.129 229.828 618.68 229.782 619.135 229.612C619.601 229.441 619.936 229.118 620.14 228.64L620.345 228.163L611.14 200.822H620.959L625.186 218.958H625.459L629.754 200.822H639.64L630.095 229.186C629.618 230.629 628.925 231.924 628.015 233.072C627.118 234.231 625.936 235.146 624.47 235.816C623.004 236.487 621.175 236.822 618.981 236.822Z" fill="#F3F4F6"/>
<g filter="url(#filter0_d_1_409)">
<rect x="857.334" y="162.004" width="202.797" height="48" rx="24" fill="#3B82F6" shape-rendering="crispEdges"/>
<path d="M887.135 180.368H888.885V188.618C888.885 189.364 888.737 190.002 888.442 190.532C888.15 191.063 887.739 191.468 887.209 191.748C886.679 192.025 886.057 192.163 885.345 192.163C884.69 192.163 884.101 192.044 883.578 191.805C883.059 191.566 882.648 191.22 882.345 190.765C882.046 190.307 881.896 189.75 881.896 189.095H883.641C883.641 189.417 883.715 189.695 883.862 189.93C884.014 190.165 884.22 190.349 884.482 190.481C884.747 190.61 885.05 190.674 885.391 190.674C885.762 190.674 886.076 190.597 886.334 190.441C886.595 190.282 886.794 190.049 886.931 189.743C887.067 189.436 887.135 189.061 887.135 188.618V180.368ZM894.82 192.18C894.002 192.18 893.288 191.993 892.678 191.618C892.068 191.243 891.595 190.718 891.258 190.044C890.921 189.369 890.752 188.582 890.752 187.68C890.752 186.775 890.921 185.983 891.258 185.305C891.595 184.627 892.068 184.1 892.678 183.725C893.288 183.35 894.002 183.163 894.82 183.163C895.638 183.163 896.352 183.35 896.962 183.725C897.572 184.1 898.046 184.627 898.383 185.305C898.72 185.983 898.888 186.775 898.888 187.68C898.888 188.582 898.72 189.369 898.383 190.044C898.046 190.718 897.572 191.243 896.962 191.618C896.352 191.993 895.638 192.18 894.82 192.18ZM894.826 190.754C895.356 190.754 895.796 190.614 896.144 190.333C896.493 190.053 896.75 189.68 896.917 189.214C897.087 188.748 897.173 188.235 897.173 187.674C897.173 187.118 897.087 186.606 896.917 186.14C896.75 185.671 896.493 185.294 896.144 185.01C895.796 184.725 895.356 184.583 894.826 184.583C894.292 184.583 893.849 184.725 893.496 185.01C893.148 185.294 892.888 185.671 892.718 186.14C892.551 186.606 892.468 187.118 892.468 187.674C892.468 188.235 892.551 188.748 892.718 189.214C892.888 189.68 893.148 190.053 893.496 190.333C893.849 190.614 894.292 190.754 894.826 190.754ZM900.625 192.004V183.277H902.324V192.004H900.625ZM901.483 181.93C901.187 181.93 900.933 181.832 900.721 181.635C900.513 181.434 900.409 181.195 900.409 180.919C900.409 180.638 900.513 180.4 900.721 180.203C900.933 180.002 901.187 179.902 901.483 179.902C901.778 179.902 902.03 180.002 902.238 180.203C902.451 180.4 902.557 180.638 902.557 180.919C902.557 181.195 902.451 181.434 902.238 181.635C902.03 181.832 901.778 181.93 901.483 181.93ZM906.148 186.822V192.004H904.449V183.277H906.08V184.697H906.188C906.389 184.235 906.703 183.864 907.131 183.583C907.563 183.303 908.106 183.163 908.762 183.163C909.356 183.163 909.877 183.288 910.324 183.538C910.771 183.784 911.118 184.152 911.364 184.64C911.61 185.129 911.733 185.733 911.733 186.453V192.004H910.034V186.657C910.034 186.025 909.87 185.53 909.54 185.174C909.211 184.815 908.758 184.635 908.182 184.635C907.788 184.635 907.438 184.72 907.131 184.89C906.828 185.061 906.587 185.311 906.409 185.64C906.235 185.966 906.148 186.36 906.148 186.822ZM917.489 181.879V180.368H926.494V181.879H922.864V192.004H921.114V181.879H917.489ZM929.887 186.822V192.004H928.188V180.368H929.864V184.697H929.972C930.177 184.227 930.489 183.854 930.909 183.578C931.33 183.301 931.879 183.163 932.557 183.163C933.156 183.163 933.678 183.286 934.125 183.532C934.576 183.779 934.925 184.146 935.171 184.635C935.421 185.119 935.546 185.725 935.546 186.453V192.004H933.847V186.657C933.847 186.017 933.682 185.521 933.353 185.169C933.023 184.813 932.565 184.635 931.978 184.635C931.576 184.635 931.216 184.72 930.898 184.89C930.584 185.061 930.336 185.311 930.154 185.64C929.976 185.966 929.887 186.36 929.887 186.822ZM941.414 192.18C940.554 192.18 939.814 191.996 939.193 191.629C938.575 191.258 938.098 190.737 937.761 190.066C937.428 189.392 937.261 188.602 937.261 187.697C937.261 186.803 937.428 186.015 937.761 185.333C938.098 184.652 938.568 184.119 939.17 183.737C939.776 183.354 940.484 183.163 941.295 183.163C941.787 183.163 942.265 183.244 942.727 183.407C943.189 183.57 943.604 183.826 943.971 184.174C944.339 184.523 944.628 184.975 944.84 185.532C945.053 186.085 945.159 186.758 945.159 187.549V188.152H938.221V186.879H943.494C943.494 186.432 943.403 186.036 943.221 185.691C943.039 185.343 942.784 185.068 942.454 184.868C942.128 184.667 941.746 184.566 941.306 184.566C940.829 184.566 940.412 184.684 940.056 184.919C939.704 185.15 939.431 185.453 939.238 185.828C939.049 186.199 938.954 186.602 938.954 187.038V188.032C938.954 188.616 939.056 189.112 939.261 189.521C939.469 189.93 939.759 190.243 940.13 190.458C940.501 190.671 940.935 190.777 941.431 190.777C941.753 190.777 942.047 190.731 942.312 190.64C942.577 190.546 942.806 190.405 942.999 190.22C943.193 190.034 943.34 189.805 943.443 189.532L945.051 189.822C944.922 190.296 944.691 190.71 944.357 191.066C944.028 191.419 943.613 191.693 943.113 191.89C942.617 192.083 942.051 192.18 941.414 192.18ZM960.759 184.152H958.986C958.918 183.773 958.791 183.44 958.606 183.152C958.42 182.864 958.193 182.619 957.924 182.419C957.655 182.218 957.354 182.066 957.02 181.964C956.691 181.862 956.34 181.811 955.969 181.811C955.299 181.811 954.698 181.979 954.168 182.316C953.642 182.654 953.225 183.148 952.918 183.799C952.615 184.451 952.464 185.246 952.464 186.186C952.464 187.133 952.615 187.932 952.918 188.583C953.225 189.235 953.644 189.727 954.174 190.061C954.704 190.394 955.301 190.561 955.964 190.561C956.331 190.561 956.679 190.511 957.009 190.413C957.342 190.311 957.644 190.161 957.912 189.964C958.181 189.767 958.409 189.527 958.594 189.243C958.784 188.955 958.914 188.625 958.986 188.254L960.759 188.26C960.664 188.832 960.481 189.358 960.208 189.839C959.939 190.316 959.592 190.729 959.168 191.078C958.748 191.422 958.267 191.69 957.725 191.879C957.183 192.068 956.592 192.163 955.952 192.163C954.945 192.163 954.047 191.924 953.259 191.447C952.471 190.966 951.85 190.279 951.395 189.385C950.945 188.491 950.719 187.424 950.719 186.186C950.719 184.943 950.947 183.877 951.401 182.987C951.856 182.093 952.477 181.407 953.265 180.93C954.053 180.449 954.948 180.208 955.952 180.208C956.57 180.208 957.145 180.297 957.679 180.475C958.217 180.65 958.7 180.907 959.128 181.248C959.556 181.585 959.911 181.998 960.191 182.487C960.471 182.972 960.661 183.527 960.759 184.152ZM966.24 192.18C965.421 192.18 964.707 191.993 964.098 191.618C963.488 191.243 963.014 190.718 962.677 190.044C962.34 189.369 962.171 188.582 962.171 187.68C962.171 186.775 962.34 185.983 962.677 185.305C963.014 184.627 963.488 184.1 964.098 183.725C964.707 183.35 965.421 183.163 966.24 183.163C967.058 183.163 967.772 183.35 968.382 183.725C968.992 184.1 969.465 184.627 969.802 185.305C970.139 185.983 970.308 186.775 970.308 187.68C970.308 188.582 970.139 189.369 969.802 190.044C969.465 190.718 968.992 191.243 968.382 191.618C967.772 191.993 967.058 192.18 966.24 192.18ZM966.245 190.754C966.776 190.754 967.215 190.614 967.564 190.333C967.912 190.053 968.17 189.68 968.336 189.214C968.507 188.748 968.592 188.235 968.592 187.674C968.592 187.118 968.507 186.606 968.336 186.14C968.17 185.671 967.912 185.294 967.564 185.01C967.215 184.725 966.776 184.583 966.245 184.583C965.711 184.583 965.268 184.725 964.916 185.01C964.567 185.294 964.308 185.671 964.137 186.14C963.971 186.606 963.887 187.118 963.887 187.674C963.887 188.235 963.971 188.748 964.137 189.214C964.308 189.68 964.567 190.053 964.916 190.333C965.268 190.614 965.711 190.754 966.245 190.754ZM972.044 192.004V183.277H973.675V184.697H973.783C973.965 184.216 974.262 183.841 974.675 183.572C975.088 183.299 975.582 183.163 976.158 183.163C976.741 183.163 977.23 183.299 977.624 183.572C978.021 183.845 978.315 184.22 978.504 184.697H978.595C978.804 184.231 979.135 183.86 979.59 183.583C980.044 183.303 980.586 183.163 981.215 183.163C982.006 183.163 982.652 183.411 983.152 183.907C983.656 184.404 983.908 185.152 983.908 186.152V192.004H982.209V186.311C982.209 185.72 982.048 185.292 981.726 185.027C981.404 184.761 981.02 184.629 980.573 184.629C980.02 184.629 979.59 184.799 979.283 185.14C978.976 185.477 978.823 185.911 978.823 186.441V192.004H977.129V186.203C977.129 185.729 976.982 185.349 976.686 185.061C976.391 184.773 976.006 184.629 975.533 184.629C975.211 184.629 974.913 184.714 974.641 184.885C974.372 185.051 974.154 185.284 973.987 185.583C973.824 185.883 973.743 186.229 973.743 186.623V192.004H972.044ZM986.025 192.004V183.277H987.655V184.697H987.763C987.945 184.216 988.243 183.841 988.655 183.572C989.068 183.299 989.563 183.163 990.138 183.163C990.722 183.163 991.21 183.299 991.604 183.572C992.002 183.845 992.296 184.22 992.485 184.697H992.576C992.784 184.231 993.116 183.86 993.57 183.583C994.025 183.303 994.566 183.163 995.195 183.163C995.987 183.163 996.633 183.411 997.133 183.907C997.637 184.404 997.888 185.152 997.888 186.152V192.004H996.19V186.311C996.19 185.72 996.029 185.292 995.707 185.027C995.385 184.761 995 184.629 994.553 184.629C994 184.629 993.57 184.799 993.263 185.14C992.957 185.477 992.803 185.911 992.803 186.441V192.004H991.11V186.203C991.11 185.729 990.962 185.349 990.667 185.061C990.371 184.773 989.987 184.629 989.513 184.629C989.191 184.629 988.894 184.714 988.621 184.885C988.352 185.051 988.135 185.284 987.968 185.583C987.805 185.883 987.724 186.229 987.724 186.623V192.004H986.025ZM1005.53 188.385V183.277H1007.24V192.004H1005.57V190.493H1005.48C1005.28 190.958 1004.95 191.347 1004.51 191.657C1004.07 191.964 1003.52 192.118 1002.87 192.118C1002.31 192.118 1001.81 191.994 1001.38 191.748C1000.95 191.498 1000.62 191.129 1000.37 190.64C1000.13 190.152 1000.01 189.547 1000.01 188.828V183.277H1001.7V188.623C1001.7 189.218 1001.87 189.691 1002.2 190.044C1002.53 190.396 1002.96 190.572 1003.48 190.572C1003.8 190.572 1004.12 190.493 1004.43 190.333C1004.75 190.174 1005.01 189.934 1005.22 189.612C1005.43 189.29 1005.54 188.881 1005.53 188.385ZM1011.06 186.822V192.004H1009.36V183.277H1010.99V184.697H1011.1C1011.3 184.235 1011.61 183.864 1012.04 183.583C1012.47 183.303 1013.02 183.163 1013.67 183.163C1014.27 183.163 1014.79 183.288 1015.24 183.538C1015.68 183.784 1016.03 184.152 1016.28 184.64C1016.52 185.129 1016.65 185.733 1016.65 186.453V192.004H1014.95V186.657C1014.95 186.025 1014.78 185.53 1014.45 185.174C1014.12 184.815 1013.67 184.635 1013.09 184.635C1012.7 184.635 1012.35 184.72 1012.04 184.89C1011.74 185.061 1011.5 185.311 1011.32 185.64C1011.15 185.966 1011.06 186.36 1011.06 186.822ZM1018.76 192.004V183.277H1020.46V192.004H1018.76ZM1019.62 181.93C1019.33 181.93 1019.07 181.832 1018.86 181.635C1018.65 181.434 1018.55 181.195 1018.55 180.919C1018.55 180.638 1018.65 180.4 1018.86 180.203C1019.07 180.002 1019.33 179.902 1019.62 179.902C1019.92 179.902 1020.17 180.002 1020.38 180.203C1020.59 180.4 1020.7 180.638 1020.7 180.919C1020.7 181.195 1020.59 181.434 1020.38 181.635C1020.17 181.832 1019.92 181.93 1019.62 181.93ZM1026.66 183.277V184.64H1021.89V183.277H1026.66ZM1023.17 181.186H1024.87V189.441C1024.87 189.771 1024.92 190.019 1025.02 190.186C1025.12 190.349 1025.25 190.46 1025.4 190.521C1025.56 190.578 1025.73 190.606 1025.92 190.606C1026.05 190.606 1026.17 190.597 1026.28 190.578C1026.38 190.559 1026.46 190.544 1026.51 190.532L1026.82 191.936C1026.72 191.974 1026.58 192.011 1026.4 192.049C1026.22 192.091 1025.99 192.114 1025.72 192.118C1025.27 192.125 1024.85 192.046 1024.47 191.879C1024.08 191.712 1023.77 191.455 1023.53 191.106C1023.29 190.758 1023.17 190.32 1023.17 189.794V181.186ZM1029.45 195.277C1029.2 195.277 1028.97 195.256 1028.76 195.214C1028.55 195.176 1028.4 195.135 1028.3 195.089L1028.7 193.697C1029.02 193.78 1029.29 193.816 1029.53 193.805C1029.78 193.794 1029.99 193.703 1030.18 193.532C1030.37 193.362 1030.53 193.083 1030.68 192.697L1030.89 192.118L1027.69 183.277H1029.51L1031.72 190.049H1031.81L1034.02 183.277H1035.85L1032.25 193.169C1032.08 193.623 1031.87 194.008 1031.61 194.322C1031.36 194.64 1031.05 194.879 1030.69 195.038C1030.34 195.197 1029.92 195.277 1029.45 195.277Z" fill="white"/>
</g>
<defs>
<filter id="filter0_d_1_409" x="855.334" y="161.004" width="206.797" height="52" filterUnits="userSpaceOnUse" color-interpolation-filters="sRGB">
<feFlood flood-opacity="0" result="BackgroundImageFix"/>
<feColorMatrix in="SourceAlpha" type="matrix" values="0 0 0 0 0 0 0 0 0 0 0 0 0 0 0 0 0 0 127 0" result="hardAlpha"/>
<feOffset dy="1"/>
<feGaussianBlur stdDeviation="1"/>
<feComposite in2="hardAlpha" operator="out"/>
<feColorMatrix type="matrix" values="0 0 0 0 0 0 0 0 0 0 0 0 0 0 0 0 0 0 0.05 0"/>
<feBlend mode="normal" in2="BackgroundImageFix" result="effect1_dropShadow_1_409"/>
<feBlend mode="normal" in="SourceGraphic" in2="effect1_dropShadow_1_409" result="shape"/>
</filter>
<clipPath id="clip0_1_409">
<rect width="82" height="75" fill="white" transform="translate(52.1309 47.0039)"/>
</clipPath>
</defs>
</svg>
