<svg width="32" height="32" viewBox="0 0 32 32" fill="none" xmlns="http://www.w3.org/2000/svg">
<g clip-path="url(#clip0_1_446)">
<path d="M7.79902 4.47L8.12401 4.904C9.39431 6.53902 10.9199 7.95857 12.642 9.108L12.912 9.283L12.899 9.54C12.8323 10.506 12.6861 11.4649 12.462 12.407L12.318 12.971C11.7321 15.1246 10.7526 17.151 9.42902 18.948C11.701 19.193 13.921 19.828 15.929 20.834C17.53 21.622 18.991 22.632 20.273 23.806L20.415 23.941L20.398 24.173C20.2364 26.7348 20.6558 29.3001 21.625 31.677L20.901 32C19.346 29.069 16.788 26.713 13.711 25.368C10.636 24.017 7.10902 23.746 3.85402 24.524C3.03202 24.718 2.32202 24.618 1.70802 24.341C1.17937 24.0871 0.732476 23.69 0.418015 23.195L0.342015 23.062L0.264015 22.908L0.179015 22.707C-0.0212413 22.1645 -0.0543314 21.5745 0.0840153 21.013C0.258015 20.389 0.634015 19.813 1.32302 19.343C4.05702 17.493 6.20602 14.806 7.26702 11.663C7.97102 9.587 8.19202 7.343 7.90002 5.118L7.79902 4.471V4.47ZM12.473 4.186L12.633 4.386C14.159 6.23311 16.0835 7.71072 18.262 8.708C22.014 10.468 26.625 10.783 30.75 9.373C31.169 9.233 31.53 9.329 31.752 9.531L31.858 9.651L31.924 9.761L31.95 9.824C32.075 10.154 31.974 10.575 31.55 10.818C28.146 12.723 25.63 15.868 24.57 19.391C23.5521 22.7163 23.8114 26.3017 25.297 29.446L25.538 29.93L24.814 30.253C23.901 28.026 22.488 25.951 20.694 24.203L20.414 23.941L20.44 23.636C20.588 22.0395 20.9655 20.4727 21.561 18.984L21.767 18.496C22.817 16.053 24.443 13.906 26.431 12.203C23.367 12.645 20.158 12.373 17.188 11.345C15.7591 10.8652 14.3921 10.2173 13.116 9.415L12.912 9.283L12.929 8.961C12.9855 7.41464 12.8461 5.86734 12.514 4.356L12.474 4.186H12.473ZM10.957 0C11.5719 1.20682 12.0495 2.47876 12.381 3.792L12.473 4.186L12.299 3.967C11.4417 2.85598 10.7468 1.62869 10.235 0.322L10.957 0ZM7.04602 1.746C7.32302 2.471 7.54002 3.209 7.69902 3.952L7.79902 4.471L7.78702 4.455C7.3471 3.85028 6.94532 3.21872 6.58402 2.564L6.32202 2.069L7.04602 1.746Z" fill="#3B82F6"/>
</g>
<defs>
<clipPath id="clip0_1_446">
<rect width="32" height="32" fill="white"/>
</clipPath>
</defs>
</svg>
