<svg width="220" height="24" viewBox="0 0 220 24" fill="none" xmlns="http://www.w3.org/2000/svg">
<g clip-path="url(#clip0_4_10)">
<path fill-rule="evenodd" clip-rule="evenodd" d="M134.66 13.107C124.326 12.737 113.939 12.607 103.54 12.816L100.94 12.876C96.824 12.916 92.747 13.478 88.64 13.625C74.138 14.055 59.611 14.821 45.126 16.09C38.712 16.72 32.318 17.719 26.086 18.956C18.156 20.535 9.973 22.666 2.719 23.959C0.507996 24.333 -0.678004 22.127 0.408996 19.053C0.908996 17.586 2.247 15.597 3.827 14.24C5.59142 12.6843 7.6763 11.5355 9.934 10.875C26.814 6.60901 43.697 4.20501 60.943 3.48601C71.25 3.18701 81.81 1.60001 92.309 0.966015C103.839 0.316015 115.406 0.0280147 126.969 0.0060147C134.086 -0.0479853 141.219 0.260015 148.329 0.324015L164.523 1.12701L169.143 1.51701C172.993 1.83701 176.836 2.13501 180.673 2.33001C189.019 3.21301 197.346 3.13201 205.817 4.48901C207.681 4.76501 209.531 4.82701 211.383 5.36201L212.1 5.58701C218.262 7.56401 220.02 9.22701 220 12.784L219.997 12.987C219.98 13.862 220.047 14.759 219.885 15.58C219.304 18.342 215.819 19.7 211.248 19.21C197.552 18.15 183.313 15.878 168.278 15.042C157.223 14.212 145.964 13.583 134.682 13.439L134.66 13.107Z" fill="#D1D5DB"/>
</g>
<defs>
<clipPath id="clip0_4_10">
<rect width="220" height="24" fill="white"/>
</clipPath>
</defs>
</svg>
