<svg width="14" height="10" viewBox="0 0 14 10" fill="none" xmlns="http://www.w3.org/2000/svg">
<path fill-rule="evenodd" clip-rule="evenodd" d="M2.03898 0C2.13798 0.006 3.27598 0.621 3.68798 0.787C4.07898 0.957 4.42298 1.197 4.75498 1.454C5.43698 1.969 6.14198 2.449 6.84398 2.934C6.94598 3.005 7.03998 3.087 7.12798 3.179L7.62498 3.007L9.38498 2.665L9.51498 2.568C9.57369 2.51902 9.64515 2.4878 9.72098 2.478L9.82798 2.466C10.046 2.431 10.505 2.334 10.971 2.344L12.081 2.282C12.241 2.281 13.751 2.577 13.772 2.621C13.7851 2.66299 13.7938 2.70622 13.798 2.75C13.816 2.875 13.763 3.04 13.888 3.102C13.933 3.124 14.055 3.394 13.972 3.512L13.835 3.715C13.7946 3.77682 13.745 3.83213 13.688 3.879C13.479 4.02985 13.2591 4.16489 13.03 4.283L12.848 4.372C12.7854 4.40654 12.7305 4.45328 12.6863 4.50945C12.6422 4.56562 12.6098 4.63007 12.591 4.699C12.545 4.832 12.457 4.833 12.387 4.888C12.011 5.148 11.651 5.469 11.285 5.756L11 5.965L11.219 6.249L11.769 7.033C11.862 7.162 11.956 7.288 12.055 7.408C12.107 7.481 12.192 7.508 12.202 7.65C12.224 7.974 12.384 8.049 12.516 8.179C12.7 8.358 12.879 8.547 13.044 8.76C13.125 8.867 13.167 9.045 13.223 9.197C13.272 9.335 13.085 9.559 13.037 9.567C12.9 9.59 12.909 9.764 12.859 9.879C12.8438 9.91959 12.8243 9.95847 12.801 9.995C12.771 10.029 11.426 9.89 11.131 9.833L11.041 9.805L10.037 9.437C9.48498 9.28 8.98698 8.975 8.86998 8.939C8.75298 8.896 8.67998 8.766 8.59498 8.661L6.99098 7.814C6.85298 7.701 6.69698 7.615 6.55798 7.503L6.39598 7.586L6.22198 7.654C5.42198 7.914 4.61998 8.168 3.83198 8.462C3.44698 8.612 3.05398 8.74 2.63398 8.789C2.19498 8.827 0.941983 9.083 0.845983 9.06C0.671243 8.99948 0.502242 8.92351 0.340983 8.833C0.250983 8.784 0.0349826 8.253 0.0169826 8.053C-0.0390174 7.425 0.0299825 7.046 0.301983 7.093C0.411983 7.113 0.591983 6.583 0.696983 6.557C0.756983 6.541 0.861983 6.469 0.983983 6.375L1.31798 6.109C1.47498 5.983 1.61498 5.875 1.68098 5.857C2.37798 5.652 3.00598 5.237 3.68498 4.979L3.74798 4.944L3.81798 4.887L3.80798 4.874C3.78364 4.83045 3.75182 4.79152 3.71398 4.759C3.12798 4.311 2.63198 3.728 2.01398 3.325C1.95598 3.289 1.84898 3.144 1.72998 2.976L1.54998 2.72C1.42998 2.552 1.31698 2.404 1.24998 2.364C1.15498 2.308 1.11898 1.745 1.00998 1.732C0.733983 1.696 0.764983 1.31 0.981983 0.725C1.04998 0.537 1.39598 0.09 1.49498 0.07C1.68698 0.033 1.87498 0 2.03898 0Z" fill="#D1D5DB"/>
</svg>
