<svg width="101" height="49" viewBox="0 0 101 49" fill="none" xmlns="http://www.w3.org/2000/svg">
<path d="M8.83168 42.7273V15.4545H10.5788V42.7273H8.83168ZM14.2969 23.9134C14.1832 22.9048 13.7145 22.1236 12.8906 21.5696C12.0668 21.0085 11.0298 20.728 9.77983 20.728C8.88494 20.728 8.1108 20.87 7.45739 21.1541C6.80398 21.4311 6.29616 21.8146 5.93395 22.3047C5.57884 22.7876 5.40128 23.3381 5.40128 23.956C5.40128 24.4744 5.52202 24.9219 5.76349 25.2983C6.01207 25.6747 6.33523 25.9908 6.73295 26.2464C7.13778 26.495 7.57102 26.7045 8.03267 26.875C8.49432 27.0384 8.93821 27.1733 9.36435 27.2798L11.495 27.8338C12.1911 28.0043 12.9048 28.2351 13.6364 28.5263C14.3679 28.8175 15.0462 29.201 15.6712 29.6768C16.2962 30.1527 16.8004 30.7422 17.1839 31.4453C17.5746 32.1484 17.7699 32.9901 17.7699 33.9702C17.7699 35.206 17.4503 36.3033 16.8111 37.2621C16.179 38.2209 15.2592 38.9773 14.0518 39.5312C12.8516 40.0852 11.3991 40.3622 9.6946 40.3622C8.06108 40.3622 6.64773 40.103 5.45455 39.5845C4.26136 39.0661 3.32741 38.331 2.6527 37.3793C1.97798 36.4205 1.60511 35.2841 1.53409 33.9702H4.83665C4.90057 34.7585 5.15625 35.4155 5.60369 35.9411C6.05824 36.4595 6.63707 36.8466 7.3402 37.1023C8.05043 37.3509 8.82812 37.4751 9.6733 37.4751C10.6037 37.4751 11.4311 37.3295 12.1555 37.0384C12.8871 36.7401 13.4624 36.3281 13.8814 35.8026C14.3004 35.2699 14.5099 34.6484 14.5099 33.9382C14.5099 33.2919 14.3253 32.7628 13.956 32.3509C13.5938 31.9389 13.1001 31.598 12.4751 31.3281C11.8572 31.0582 11.1577 30.8203 10.3764 30.6143L7.7983 29.9112C6.05114 29.4354 4.66619 28.7358 3.64347 27.8125C2.62784 26.8892 2.12003 25.6676 2.12003 24.1477C2.12003 22.8906 2.46094 21.7933 3.14276 20.8558C3.82457 19.9183 4.74787 19.1903 5.91264 18.6719C7.07742 18.1463 8.39134 17.8835 9.8544 17.8835C11.3317 17.8835 12.6349 18.1428 13.7642 18.6612C14.9006 19.1797 15.7955 19.8935 16.4489 20.8026C17.1023 21.7045 17.4432 22.7415 17.4716 23.9134H14.2969Z" fill="#9CA3AF"/>
<path d="M20.5348 39V34.2358L31.6665 23.9286C32.6133 23.0124 33.4073 22.1879 34.0487 21.4549C34.7002 20.7219 35.1939 20.0043 35.5298 19.3018C35.8658 18.5893 36.0337 17.8207 36.0337 16.9961C36.0337 16.0799 35.825 15.291 35.4077 14.6293C34.9903 13.9574 34.4202 13.4433 33.6974 13.087C32.9747 12.7205 32.1552 12.5373 31.239 12.5373C30.2821 12.5373 29.4473 12.7307 28.7347 13.1175C28.0221 13.5044 27.4724 14.0592 27.0856 14.782C26.6987 15.5047 26.5053 16.3649 26.5053 17.3626H20.2294C20.2294 15.3164 20.6926 13.54 21.619 12.0334C22.5453 10.5268 23.8433 9.36115 25.5128 8.53657C27.1823 7.712 29.1063 7.29971 31.2848 7.29971C33.5244 7.29971 35.4738 7.69673 37.1332 8.49077C38.8027 9.27462 40.1006 10.3639 41.027 11.7585C41.9534 13.1532 42.4166 14.7514 42.4166 16.5533C42.4166 17.7341 42.1824 18.8997 41.7141 20.0501C41.256 21.2004 40.4366 22.478 39.2557 23.8828C38.0748 25.2775 36.4104 26.9521 34.2624 28.9066L29.6967 33.3807V33.5945H42.8288V39H20.5348ZM58.4547 7.29971C60.0632 7.29971 61.6105 7.56948 63.0968 8.10902C64.5932 8.64855 65.9268 9.50876 67.0975 10.6896C68.2784 11.8705 69.2098 13.4382 69.8919 15.3928C70.5841 17.3371 70.9353 19.7243 70.9455 22.5543C70.9455 25.2113 70.6452 27.5832 70.0446 29.6701C69.4542 31.7468 68.6041 33.513 67.4945 34.9688C66.3849 36.4245 65.0462 37.5341 63.4785 38.2976C61.9108 39.0509 60.1599 39.4276 58.2257 39.4276C56.1388 39.4276 54.2962 39.0254 52.698 38.2212C51.0998 37.4068 49.812 36.3023 48.8347 34.9077C47.8676 33.5028 47.2823 31.925 47.0787 30.174H53.5989C53.8534 31.3142 54.3879 32.1998 55.2023 32.831C56.0167 33.4519 57.0245 33.7624 58.2257 33.7624C60.2617 33.7624 61.809 32.8768 62.8677 31.1055C63.9265 29.324 64.4609 26.8859 64.4711 23.7912H64.2573C63.789 24.7074 63.1579 25.4963 62.3638 26.158C61.5698 26.8095 60.6587 27.3134 59.6305 27.6697C58.6125 28.026 57.5284 28.2042 56.378 28.2042C54.5355 28.2042 52.8914 27.7715 51.4459 26.9062C50.0003 26.041 48.8602 24.8499 48.0254 23.3331C47.1907 21.8163 46.7733 20.0857 46.7733 18.1413C46.7631 16.0443 47.2467 14.1763 48.2239 12.5373C49.2012 10.8983 50.5653 9.61565 52.3163 8.68928C54.0774 7.75272 56.1235 7.28953 58.4547 7.29971ZM58.5006 12.4915C57.4724 12.4915 56.5562 12.7358 55.752 13.2244C54.9579 13.7131 54.3268 14.3697 53.8585 15.1942C53.4004 16.0188 53.1765 16.9401 53.1866 17.9581C53.1866 18.9863 53.4106 19.9126 53.8585 20.7372C54.3166 21.5516 54.9376 22.2031 55.7214 22.6918C56.5155 23.1702 57.4215 23.4094 58.4395 23.4094C59.203 23.4094 59.9105 23.2669 60.562 22.9819C61.2135 22.6969 61.7785 22.3049 62.257 21.8061C62.7456 21.2971 63.1273 20.7118 63.4022 20.0501C63.6771 19.3884 63.8145 18.686 63.8145 17.9428C63.8043 16.9554 63.5702 16.0494 63.1121 15.2248C62.654 14.4002 62.0228 13.7385 61.2186 13.2397C60.4144 12.7409 59.5084 12.4915 58.5006 12.4915Z" fill="#F3F4F6"/>
<path d="M78.4709 27.3409L75.1896 39.5312H73.8622L77.1435 27.3409H78.4709ZM79.5737 38V30.3636H81.0005V31.6065H81.095C81.2541 31.1856 81.5142 30.8575 81.8755 30.6222C82.2368 30.3835 82.6693 30.2642 83.1731 30.2642C83.6835 30.2642 84.1111 30.3835 84.4558 30.6222C84.8038 30.8608 85.0606 31.1889 85.2264 31.6065H85.3059C85.4882 31.1989 85.7782 30.8741 86.1759 30.6321C86.5737 30.3868 87.0476 30.2642 87.5978 30.2642C88.2905 30.2642 88.8556 30.4813 89.2931 30.9155C89.7339 31.3497 89.9543 32.0043 89.9543 32.8793V38H88.4678V33.0185C88.4678 32.5014 88.327 32.1269 88.0453 31.8949C87.7635 31.6629 87.4271 31.5469 87.036 31.5469C86.5521 31.5469 86.1759 31.696 85.9075 31.9943C85.639 32.2893 85.5048 32.6688 85.5048 33.1328V38H84.0232V32.924C84.0232 32.5097 83.894 32.1766 83.6355 31.9247C83.3769 31.6728 83.0405 31.5469 82.6262 31.5469C82.3445 31.5469 82.0843 31.6214 81.8457 31.7706C81.6104 31.9164 81.4198 32.1203 81.2739 32.3821C81.1314 32.6439 81.0602 32.9472 81.0602 33.2919V38H79.5737ZM95.0033 38.1541C94.2874 38.1541 93.6627 37.9901 93.129 37.6619C92.5954 37.3338 92.1811 36.8748 91.8861 36.2848C91.5912 35.6948 91.4437 35.0054 91.4437 34.2166C91.4437 33.4245 91.5912 32.7318 91.8861 32.1385C92.1811 31.5452 92.5954 31.0845 93.129 30.7564C93.6627 30.4283 94.2874 30.2642 95.0033 30.2642C95.7192 30.2642 96.344 30.4283 96.8776 30.7564C97.4112 31.0845 97.8255 31.5452 98.1205 32.1385C98.4155 32.7318 98.563 33.4245 98.563 34.2166C98.563 35.0054 98.4155 35.6948 98.1205 36.2848C97.8255 36.8748 97.4112 37.3338 96.8776 37.6619C96.344 37.9901 95.7192 38.1541 95.0033 38.1541ZM95.0083 36.9062C95.4723 36.9062 95.8568 36.7836 96.1617 36.5384C96.4666 36.2931 96.692 35.9666 96.8378 35.5589C96.987 35.1513 97.0616 34.7022 97.0616 34.2116C97.0616 33.7244 96.987 33.277 96.8378 32.8693C96.692 32.4583 96.4666 32.1286 96.1617 31.88C95.8568 31.6314 95.4723 31.5071 95.0083 31.5071C94.541 31.5071 94.1532 31.6314 93.845 31.88C93.54 32.1286 93.313 32.4583 93.1638 32.8693C93.018 33.277 92.9451 33.7244 92.9451 34.2116C92.9451 34.7022 93.018 35.1513 93.1638 35.5589C93.313 35.9666 93.54 36.2931 93.845 36.5384C94.1532 36.7836 94.541 36.9062 95.0083 36.9062Z" fill="#9CA3AF"/>
</svg>
