<svg width="32" height="32" viewBox="0 0 32 32" fill="none" xmlns="http://www.w3.org/2000/svg">
<rect width="32" height="32" rx="16" fill="#DBEAFE"/>
<g clip-path="url(#clip0_1_439)">
<path d="M22.968 10.276C22.9555 10.217 22.9273 10.1624 22.8865 10.1179C22.8457 10.0734 22.7937 10.0406 22.736 10.023C22.5258 9.98109 22.3081 9.99664 22.106 10.068C22.106 10.068 8.08701 15.106 7.28601 15.664C7.11401 15.785 7.05601 15.854 7.02701 15.936C6.88901 16.336 7.32001 16.509 7.32001 16.509L10.933 17.686C10.994 17.697 11.0568 17.6932 11.116 17.675C11.938 17.156 19.386 12.453 19.816 12.295C19.884 12.275 19.934 12.295 19.916 12.344C19.744 12.944 13.31 18.663 13.276 18.698C13.2588 18.7122 13.2452 18.7303 13.2365 18.7509C13.2278 18.7714 13.2242 18.7938 13.226 18.816L12.889 22.344C12.889 22.344 12.747 23.444 13.845 22.344C14.4537 21.7383 15.0876 21.1585 15.745 20.606C16.987 21.464 18.325 22.412 18.901 22.906C18.9976 23.0001 19.1123 23.0737 19.2381 23.1223C19.3639 23.171 19.4982 23.1936 19.633 23.189C19.799 23.1685 19.9548 23.098 20.0798 22.987C20.2048 22.8759 20.2931 22.7294 20.333 22.567C20.333 22.567 22.894 12.292 22.979 10.909C22.987 10.774 23 10.692 23 10.592C23.0037 10.4857 22.9929 10.3794 22.968 10.276Z" fill="#3B82F6"/>
</g>
<defs>
<clipPath id="clip0_1_439">
<rect width="32" height="32" fill="white"/>
</clipPath>
</defs>
</svg>
